# xmcd CD database file
#
# Track frame offsets:
#	150
#	15337
#	38565
#	49995
#	63527
#	75862
#	89720
#	100667
#	115617
#	124222
#
# Disc length: 1837 seconds
#
# Revision: 2
# Processed by: cddbd v1.4PL0 Copyright (c) Steve Scherf et al.
# Submitted via: CDex 1.40Release
#
DISCID=72072b0a
DTITLE=Various Artist - Country Gospel
DYEAR=1998
DGENRE=Country Gospel
TTITLE0=Gatlin Brothers - Amazing Grace
TTITLE1=The Edwin Hawkin Singers - Oh Happy Day
TTITLE2=Mickey Gilley - I Saw the Light
TTITLE3=Lacy Dalton - Life RailRoad To Heaven
TTITLE4=Sandy Posey - All Go Down to the River
TTITLE5=Bobby Helms - What a Friend We Have In Jesus
TTITLE6=Ray Price - Rock of Ages
TTITLE7=The Jordanaires - Peace in the Valley
TTITLE8=Etta James - Old Time Religion
TTITLE9=Donna Fargo - You Can't Be A Beacon
EXTD=YEAR: 1998
EXTT0=
EXTT1=
EXTT2=
EXTT3=
EXTT4=
EXTT5=
EXTT6=
EXTT7=
EXTT8=
EXTT9=
PLAYORDER=
